<svg version="1" xmlns="http://www.w3.org/2000/svg" width="933.333" height="933.333" viewBox="0 0 700.000000 700.000000"><path d="M42.5 138.6c-20.9 6.1-36.4 23-39.8 43.4-1.4 8.3-1.6 136.1-.2 143.5 3 16.5 14.8 31.8 29.9 38.9 12.6 6 11.9 5.9 85.1 5.9 36.9 0 68.6-.3 70.5-.6 6.6-1.2 7.8-1.5 13.1-3.8 7.1-3 12.7-6.8 18.1-12.3 5.6-5.9 5.8-6.1 9.2-12.6 6.6-12.1 6.5-11.5 6.6-86 0-45.2-.3-69.5-1.1-73.5-2.9-15.6-13.4-30.2-27.3-37.6-13.2-7.1-10.2-6.9-88.6-6.8-58.7 0-71.3.3-75.5 1.5zM509.9 138.5c-14.9 4-28.7 15.2-35.3 28.6-2 4.1-3.9 8.7-4.2 10.4-.3 1.6-.8 4.6-1.3 6.5-.4 1.9-.6 33.9-.6 71 .1 60 .3 68.2 1.8 73.9 5.2 19.5 21.3 35.4 40.2 39.7 1.1.3 3.1.8 4.5 1.1 1.4.3 33.1.5 70.5.6 59.9 0 68.8-.2 74.4-1.7 15.4-4 28.7-14.5 35.7-28.3l3.9-7.6V173.5l-3.8-7.1c-4.8-9-14-18.3-22.7-22.8-12.6-6.6-11.9-6.6-89-6.5-52.2.1-70.6.4-74.1 1.4zM283.5 370.7c-22.6 3.7-38.5 16.9-45.6 37.8l-2.8 8V486c-.1 67.1 0 69.9 2 77 4.9 17.9 18 31.7 36.3 38.2 6 2.2 7.1 2.2 75.8 2.4 75.7.3 76.3.2 87.8-5.3 16.2-7.8 26.7-21.3 30.3-39 1.9-9.8 1.7-138.2-.3-146.3-1.2-5.1-4.2-12.2-7.5-17.9-3.9-6.9-19.1-19.2-25.5-20.8-1.4-.3-3.1-1-3.7-1.6-.7-.5-1.3-.7-1.3-.3 0 .3-1.2 0-2.7-.6-2.1-.9-21.5-1.2-71.8-1.3-37.9-.1-69.9 0-71 .2z"/></svg>